<svg xmlns="http://www.w3.org/2000/svg" version="1.1" xmlns:xlink="http://www.w3.org/1999/xlink" width="512" height="512" x="0" y="0" viewBox="0 0 24 24" style="enable-background:new 0 0 512 512" xml:space="preserve" class=""><g><path d="M20.693 5.109c-2.731 4.647-9.967 13.024-18.97 14.375a1.499 1.499 0 1 1-.445-2.966c7.74-1.161 14.21-8.674 16.643-12.624l-1.618-.71c-.665-.292-.646-1.242.031-1.506L20.372.101a1.163 1.163 0 0 1 1.507.661L23.454 4.8a.815.815 0 0 1-1.087 1.043l-1.674-.734ZM0 6c0-3.309 2.691-6 6-6s6 2.691 6 6-2.691 6-6 6-6-2.691-6-6Zm4-2a2 2 0 1 0 3.999.001A2 2 0 0 0 4 4Zm-.966 4.66C3.767 9.476 4.818 10 6 10s2.233-.524 2.966-1.34C8.348 7.667 7.256 7 6 7s-2.348.667-2.966 1.66ZM22.5 9a1.5 1.5 0 0 0-1.5 1.5v12a1.5 1.5 0 1 0 3 0v-12A1.5 1.5 0 0 0 22.5 9Zm-5 4a1.5 1.5 0 0 0-1.5 1.5v8a1.5 1.5 0 1 0 3 0v-8a1.5 1.5 0 0 0-1.5-1.5Zm-5 4a1.5 1.5 0 0 0-1.5 1.5v4a1.5 1.5 0 1 0 3 0v-4a1.5 1.5 0 0 0-1.5-1.5Zm-5 3A1.5 1.5 0 0 0 6 21.5v1a1.5 1.5 0 1 0 3 0v-1A1.5 1.5 0 0 0 7.5 20ZM1 22.5a1.5 1.5 0 1 0 3.001-.001A1.5 1.5 0 0 0 1 22.5Z" fill="#c4c7ca" opacity="1" data-original="#000000" class=""></path></g></svg>