<svg xmlns="http://www.w3.org/2000/svg" version="1.1" xmlns:xlink="http://www.w3.org/1999/xlink" width="512" height="512" x="0" y="0" viewBox="0 0 24 24" style="enable-background:new 0 0 512 512" xml:space="preserve" class=""><g><path d="M12 0C5.383 0 0 5.383 0 12s5.383 12 12 12 12-5.383 12-12S18.617 0 12 0Zm-2 7a2 2 0 1 1 4 0v5a2 2 0 1 1-4 0V7Zm3 10.916V19a1 1 0 1 1-2 0v-1.084A6.009 6.009 0 0 1 6 12a1 1 0 1 1 2 0c0 2.206 1.794 4 4 4s4-1.794 4-4a1 1 0 1 1 2 0 6.009 6.009 0 0 1-5 5.916Z" fill="#374856" opacity="1" data-original="#000000" class=""></path></g></svg>