<svg xmlns="http://www.w3.org/2000/svg" version="1.1" xmlns:xlink="http://www.w3.org/1999/xlink" width="512" height="512" x="0" y="0" viewBox="0 0 24 24" style="enable-background:new 0 0 512 512" xml:space="preserve" class=""><g><path d="M8 7h14.5a1.5 1.5 0 0 0 0-3H8a1.5 1.5 0 0 0 0 3ZM22.5 11H8a1.5 1.5 0 0 0 0 3h14.5a1.5 1.5 0 0 0 0-3ZM22.5 18H8a1.5 1.5 0 0 0 0 3h14.5a1.5 1.5 0 0 0 0-3Z" fill="#c4c7ca" opacity="1" data-original="#000000" class=""></path><circle cx="2.5" cy="5.5" r="2.5" fill="#c4c7ca" opacity="1" data-original="#000000" class=""></circle><circle cx="2.5" cy="12" r="2.5" fill="#c4c7ca" opacity="1" data-original="#000000" class=""></circle><circle cx="2.5" cy="19" r="2.5" fill="#c4c7ca" opacity="1" data-original="#000000" class=""></circle></g></svg>