<svg xmlns="http://www.w3.org/2000/svg" version="1.1" xmlns:xlink="http://www.w3.org/1999/xlink" width="512" height="512" x="0" y="0" viewBox="0 0 24 24" style="enable-background:new 0 0 512 512" xml:space="preserve" class=""><g><path d="M16.523 5.404A8 8 0 1 0 20 12c0-.339-.028-.672-.069-1H18a3 3 0 0 1-3-3c0-1.117.617-2.08 1.523-2.596Zm-.875 7.567a1 1 0 0 1-1.056 1.698l-3.121-1.942a.999.999 0 0 1-.471-.849V7a1 1 0 0 1 2 0v4.326l2.648 1.645ZM24 3v4a2 2 0 0 1-2 2h-4a1 1 0 0 1 0-2h2.636C18.847 3.912 15.596 2.008 12 2.008V2C6.486 2 2 6.486 2 12s4.486 10 10 10c.24 0 .478-.009.714-.025a.99.99 0 0 1 1.068.926.998.998 0 0 1-.926 1.068c-.283.021-.568.031-.856.031-6.617 0-12-5.383-12-12S5.383 0 12 0c.01 0 .018.005.028.006A11.937 11.937 0 0 1 22 5.374V3a1 1 0 0 1 2 0Zm-5.213 17.715a1 1 0 0 1-.3 1.382c-.459.296-.94.561-1.432.789a.997.997 0 0 1-1.328-.486 1 1 0 0 1 .486-1.328c.408-.189.809-.41 1.191-.656a1.003 1.003 0 0 1 1.382.3ZM24 12c0 .545-.037 1.094-.109 1.63a1 1 0 0 1-1.982-.27c.061-.447.092-.905.092-1.36a1 1 0 1 1 2 0Zm-1.467 5.753c-.26.475-.557.938-.88 1.377a1 1 0 0 1-1.61-1.189c.271-.366.519-.752.735-1.148a1 1 0 1 1 1.753.961Z" fill="#c4c7ca" opacity="1" data-original="#000000" class=""></path></g></svg>